# xmcd
#
# Track frame offsets:
#	150
#	17053
#	36133
#	57858
#	76990
#	96285
#	113815
#	135215
#	160245
#	176288
#	192290
#	215510
#	234173
#
# Disc length: 3357 seconds
#
# Revision: 1
# Processed by: cddbd v1.4PL0 Copyright (c) Steve Scherf et al.
# Submitted via: audiograbber 1.80
#
DISCID=9b0d1b0d
DTITLE=The Respatexans - Almost Famous
DYEAR=1900
DGENRE=
TTITLE0=The Final Country Song
TTITLE1=The Kind Hand of Love
TTITLE2=The Meeting of the Waters
TTITLE3=Hardship Volunteer
TTITLE4=Almost Famous
TTITLE5=The Dam (Never Carried His Name)
TTITLE6=Who's Giving to Her (What She Should Be Gettin' From You)
TTITLE7=I Seek You Babe (ICQ)
TTITLE8=Chestnut Eyes
TTITLE9=Hole In The Wall
TTITLE10=Eat A Peach For Duane
TTITLE11=Julie
TTITLE12=Casey Jones
EXTD=
EXTT0=
EXTT1=
EXTT2=
EXTT3=
EXTT4=
EXTT5=
EXTT6=
EXTT7=
EXTT8=
EXTT9=
EXTT10=
EXTT11=
EXTT12=
PLAYORDER=
